<?xml version="1.0" encoding="utf-8"?>
<!-- Generator: Adobe Illustrator 19.2.0, SVG Export Plug-In . SVG Version: 6.00 Build 0)  -->
<svg version="1.1" id="Capa_1" xmlns="http://www.w3.org/2000/svg" xmlns:xlink="http://www.w3.org/1999/xlink" x="0px" y="0px"
	 viewBox="0 0 316 245" style="enable-background:new 0 0 316 245;" xml:space="preserve">
<style type="text/css">
	.st0{fill:#FFFFFF;}
</style>
<g>
	<path class="st0" d="M196.3,39.9c29.4,0,56.2,21.9,54.5,63.1c54.7,5.3,51.7,65,29.9,86.3c-9.4,9.2-25.6,15.7-25.6,15.7H50.2
		c-51.7-21.6-26.6-76.7,8.2-76.7c4.3,0,8.7,0.8,13.1,2.7c-1.5-39.2,24.7-52.6,45-52.6c7,0,13.3,1.6,17.5,4.3
		C147.8,53.7,172.9,39.9,196.3,39.9 M196.3,23.9c-27.7,0-53.3,14.8-69.5,39.4c-3.2-0.6-6.6-0.9-10.1-0.9c-16.8,0-32.8,6.6-43.9,18.2
		c-6.1,6.4-13,16.5-15.8,31.8c-24.3,0.8-46.1,19.8-51.1,44.9c-4.2,20.7,3.7,48.1,38.3,62.5l3,1.2h3.2H255h3.1l2.9-1.2
		c2-0.8,19.4-8.1,30.7-19.1c17.6-17.2,24.4-48.8,15.7-73.5c-3.8-10.8-10.5-20.2-19.3-27c-6.3-4.8-13.6-8.4-21.8-10.7
		c-2.2-22-11.5-36.3-19.7-44.8C233.7,31.3,215.8,23.9,196.3,23.9L196.3,23.9z"/>
</g>
</svg>
