<?xml version="1.0" encoding="utf-8"?>
<!-- Generator: Adobe Illustrator 19.2.1, SVG Export Plug-In . SVG Version: 6.00 Build 0)  -->
<svg version="1.1" id="Layer_1" xmlns="http://www.w3.org/2000/svg" xmlns:xlink="http://www.w3.org/1999/xlink" x="0px" y="0px"
	 viewBox="0 0 647.6 159.9" style="enable-background:new 0 0 647.6 159.9;" xml:space="preserve">
<style type="text/css">
	.st0{fill:#FFFFFF;}
</style>
<g>
	<path class="st0" d="M36,137.3c-2.3,8.1-8.5,12.6-17.4,12.6C6.4,149.9,0,141.7,0,125.7c0-15.7,7-24.4,19.1-24.4
		c8.5,0,14.1,4.4,15.9,12.4l-8.2,2c-1.2-4.5-4-6.9-8.3-6.9c-6.4,0-9.6,5.7-9.6,17c0,10.9,3,16.2,9.8,16.2c4.4,0,7.8-2.7,9-7
		L36,137.3z"/>
	<path class="st0" d="M47.7,132c0-7.3,2.2-10.8,6.5-10.8c4.4,0,6.5,3.5,6.5,10.8c0,7.3-2.1,10.8-6.5,10.8
		C49.8,142.9,47.7,139.3,47.7,132z M39.6,132c0,11.2,5.5,17.7,14.6,17.7s14.6-6.5,14.6-17.7c0-11.2-5.5-17.7-14.6-17.7
		C45,114.3,39.6,120.8,39.6,132z"/>
	<path class="st0" d="M74.9,115h7.4v4c2.7-3,5.8-4.6,9.6-4.6c4,0,6.7,1.6,8.4,5.1c3.5-3.4,6.7-5.1,11-5.1c5.7,0,9.1,3.3,9.1,8.6
		v26.1h-8.1v-23.5c0-2.9-1.3-4.6-3.7-4.6c-2.5,0-4.9,1.2-7.2,3.5v24.6h-7.9v-22.6c0-3.7-1-5.5-3.5-5.5c-2.7,0-5.3,1.2-7.2,3.5v24.6
		h-8L74.9,115L74.9,115z"/>
	<path class="st0" d="M136.7,140.3v-16.2c2-2,3.8-3,6.1-3c4.5,0,7.2,3.8,7.2,11c0,7.2-2.8,11.2-7.2,11.2
		C140.7,143.2,138.8,142.2,136.7,140.3z M136.8,145.9c2.3,2.7,4.8,3.9,8.3,3.9c7.4,0,13-6.7,13-17.7c0-10.6-5.5-17.7-13.3-17.7
		c-3.8,0-6.4,1.3-9.2,4.4l-0.8-3.7h-5.8v46.5h7.9L136.8,145.9L136.8,145.9z"/>
	<path class="st0" d="M173.8,149.7c-6.3,0-9.5-3.7-9.5-11V115h8.1v22.1c0,4.2,1,6.1,3.9,6.1c2.4,0,4.8-1.3,7.6-3.8V115h8v34.1h-7.4
		v-4C180.6,148.2,177.5,149.7,173.8,149.7z"/>
	<path class="st0" d="M207.1,134.8c2.5,5,5.4,7.2,9.6,7.2c4.8,0,7.6-2.4,7.6-6c0-3.2-2.1-4.8-7-6.6c-4.2-1.6-8.1-2.9-11.2-4.9
		c-3.6-2.3-5.5-5.9-5.5-10.4c0-7.5,6.1-12.9,15.4-12.9c8.1,0,13.4,3.5,15.9,10.4l-8,2.9c-2-4.2-4.5-6-8.5-6c-3.9,0-6.2,2-6.2,5
		c0,4.4,4.6,5.2,12.1,8.4c7.8,3.3,11.7,6.4,11.7,13.8c0,8.6-5.9,14-16,14c-8.7,0-14.8-3.9-17.9-11.3L207.1,134.8z"/>
	<path class="st0" d="M245.3,132c0-7.3,2.2-10.8,6.5-10.8c4.4,0,6.5,3.5,6.5,10.8c0,7.3-2.1,10.8-6.5,10.8
		C247.5,142.9,245.3,139.3,245.3,132z M237.2,132c0,11.2,5.5,17.7,14.6,17.7c9.1,0,14.6-6.5,14.6-17.7c0-11.2-5.5-17.7-14.6-17.7
		C242.7,114.3,237.2,120.8,237.2,132z"/>
	<path class="st0" d="M272.5,101.8h8.1v47.3h-8.1V101.8z"/>
	<path class="st0" d="M298.5,149.7c-6.3,0-9.5-3.7-9.5-11V115h8.1v22.1c0,4.2,1,6.1,3.9,6.1c2.4,0,4.8-1.3,7.6-3.8V115h8v34.1h-7.4
		v-4C305.4,148.2,302.3,149.7,298.5,149.7z"/>
	<path class="st0" d="M350.7,141.1c-2.3,5.7-7,8.7-13.4,8.7c-9.6,0-14.7-6.1-14.7-17.7c0-11.1,5.7-17.6,14.7-17.6
		c6.4,0,11.1,3.1,13.1,8.8l-6.8,2.9c-1.2-3.4-2.9-5.1-5.8-5.1c-4.9,0-7.2,3.6-7.2,11.4c0,7,2.1,10.4,6.6,10.4c3.2,0,5.5-1.6,7.2-5.1
		L350.7,141.1z"/>
	<path class="st0" d="M356.6,115h8.1v34.1h-8.1V115z M356.6,101.8h8.1v7.6h-8.1V101.8z"/>
	<path class="st0" d="M378.9,132c0-7.3,2.2-10.8,6.5-10.8c4.4,0,6.5,3.5,6.5,10.8c0,7.3-2.1,10.8-6.5,10.8
		C381.1,142.9,378.9,139.3,378.9,132z M370.8,132c0,11.2,5.5,17.7,14.6,17.7c9.1,0,14.6-6.5,14.6-17.7c0-11.2-5.5-17.7-14.6-17.7
		C376.3,114.3,370.8,120.8,370.8,132z"/>
	<path class="st0" d="M406.1,115h7.4v4c3.8-3,6.8-4.7,10.5-4.7c6.3,0,9.6,3.7,9.6,11v23.7h-8.1v-22.2c0-4.2-1-6.1-3.9-6.1
		c-2.4,0-4.8,1.2-7.5,3.8v24.5h-8L406.1,115L406.1,115z"/>
	<path class="st0" d="M447.6,127.6c0.3-4.6,2.6-7.3,6.2-7.3c3.8,0,6.2,2.7,6.2,7.3H447.6z M467.6,142.4l-5.9-3.6
		c-1.9,3-3.9,4.4-7,4.4c-4.7,0-7.2-3.2-7.2-9.7h20.4c0-0.6,0.1-1.2,0.1-1.8c0-11.1-5.3-17.4-14.1-17.4c-8.8,0-14.3,6.4-14.3,17.8
		c0,11.2,5.4,17.6,14.4,17.6C460.3,149.7,465,147.2,467.6,142.4z"/>
	<path class="st0" d="M476.8,138.6c2.5,3.3,5,4.9,7.8,4.9c3,0,4.8-1.5,4.8-3.8c0-2.8-2.4-3.5-6.2-4.9c-7-2.7-10.7-4.9-10.7-10.6
		c0-5.7,4.6-10,11.7-10c4.8,0,8.4,1.7,11.5,5.2l-5.1,4.4c-2.2-2.3-4.3-3.5-6.7-3.5c-2.8,0-4.4,1.4-4.4,3.4c0,2.3,2.8,2.9,7.6,4.8
		c6.3,2.4,9.4,4.8,9.4,10.7c0,6.3-4.7,10.5-11.9,10.5c-5.7,0-9.8-2.1-13.4-6.9L476.8,138.6z"/>
</g>
<path class="st0" d="M584.5,47.3C584.5,47.3,584.5,47.3,584.5,47.3C584.5,47.3,584.5,47.3,584.5,47.3L584.5,47.3z"/>
<path class="st0" d="M585.2,52.3c-0.5-0.8-1.8-3.4-2-3.9c-2.8,2.1-5.7,3.2-8.6,2.6c-1-0.2-2.3-1.2-3.7-1.8c-2.5-1.1-6.2-1.7-8.5-1.9
	c0.9,2.7,2.3,5.2,4.3,7.2c3.5,3.6,8.2,4.8,13.3,3.7C581.3,56.4,583.7,53.7,585.2,52.3z"/>
<path class="st0" d="M599.3,5.8c-13.2-13.5-36.1,7.3-38,30.9c0.5,0,6.3,0.7,6.8,0.8c0.9-18.5,18.1-33.8,25.4-26.4
	c5.9,6,2.3,18.5-0.4,24.5c-1.7,3.9,1.7,9.5,2.7,11.1C604.6,35.2,608.9,15.6,599.3,5.8z"/>
<path class="st0" d="M626.7,63.6c-5.5-13-17.8-19.7-30.2-15.9c1.5,2,3.5,3.8,6.1,5.9c3,2.4,6.3,2.6,8.9,4.8
	c10.7,9.1,10.9,32.6-1.7,45c-12.4,12.2-26.9,4.3-29.2-13.4c-2.5,1.3-5,2.2-7.6,2.9c3.6,25.3,27,34.9,44.4,17.8
	C630,98.1,632.8,78,626.7,63.6z"/>
<path class="st0" d="M582.1,74.4c1.8-5.7,5-11,9.2-14.6c-1.9-1.9-3.7-4-5.1-6.1c0,0,0,0,0-0.1c-7.2,6.6-11.9,16.7-13.1,26.8
	C575.9,79.4,579.6,77.4,582.1,74.4z"/>
<path class="st0" d="M593.3,61.6c-0.3-0.2-0.5-0.4-0.8-0.7c-2.2,1.9-4.8,5.3-6.2,7.8c-2.1,15.2-28.2,20.9-42.3,6.5
	c-11.7-11.9-4-29.5,16.4-29.6c6,0,11.6,1.9,13.9,3.3c2.2,1.4,5.3,0.2,8.3-2.1c-0.2-0.5-0.3-1-0.5-1.4c-13.5-9.9-34.2-9.1-44.5,1
	c-11.3,11.1-9,25.8,0.3,35.3c13.5,13.8,36.7,13.8,48.9,1.8C593.1,77.3,595,69.2,593.3,61.6z"/>
<g>
	<path class="st0" d="M637.2,32.8c-8.7-8.8-20.6-13.4-31-13.5c0.1,2.5-0.1,5.2-0.4,7.5c8.4,0,18.4,3.8,25.1,10.6
		c5.6,5.7,9.9,14.8,3.9,20.7c-1.8,1.8-4.3,3-7.2,3.6c1.2,2.7,2.2,5.5,2.8,8.5C648.3,65.5,651.4,47.2,637.2,32.8z"/>
	<path class="st0" d="M613.1,62.3c-0.4-0.6-1.1-1.9-4.3-3.3c-8.2-3.5-17.1-11.5-17.8-20.8c-0.1-1.5,0-3.4,1.6-6
		c1.4-2.3,2.5-7.7,2.5-11.1c-10.4,4-17,15.7-8.7,30c5.5,9.4,17.3,17.6,30.4,19.5C616.3,67.8,614.5,64.2,613.1,62.3z"/>
</g>
<path class="st0" d="M647.6,142.8c0-3.7-11.7-6.5-27.5-6.5c-8.3,0-16,0.6-22,1.7c-1.3-1.7-5.4-3.3-13.8-4
	c-7.6-2.5-15.4-4.6-19.4-4.6c-2.2,0-4.1,0.5-4.1,1.4c0,0.7,1.6,1.8,4.2,3c-16.5,1-35.7,4.7-35.7,9.5c0,3.4,10.9,5.6,24.4,5.6
	c10.9,0,20.7-1,28.3-2.5c11.1,5.6,32.5,12.2,42,12.2c2.5,0,6.6-0.5,6.6-2.1c0-1.6-4.1-4.1-10.1-6.7
	C637.8,149.1,647.6,145.6,647.6,142.8z M583.5,136.6c1.6,0.6,3.2,1.2,5,1.9c-2.6-0.8-4.6-1.4-6.4-2
	C582.6,136.5,583,136.6,583.5,136.6z M593.6,144.1c2.5,0.7,5.3,1.6,7.9,2.5C597.4,146,594.3,145.2,593.6,144.1z M554,145.8
	c-9.5,0-15.5-1.1-15.5-2.7c0-2.6,15.4-6.5,32-6.9c2.4,0.9,5.1,1.8,7.8,2.7c-2.1,0.3-3.3,1-3.3,2c0,0.8,0.8,1.7,2.3,2.8
	C570.5,144.9,562,145.8,554,145.8z M604.4,149.7c2,0.2,4,0.3,6.2,0.3c3.7,1.5,6.6,2.9,8.1,4C614.2,152.9,609.2,151.3,604.4,149.7z
	 M614.5,147.4c-3.8-1.4-7.9-2.9-11.9-4.1c0.6-0.2,0.9-0.5,0.9-0.8c0-0.5-1.2-1.3-3.3-2.3c4.6-1,11.1-1.6,18.6-1.6
	c11.8,0,20.8,1.7,20.8,3.9C639.5,145,627.1,147.3,614.5,147.4z"/>
</svg>
