<?xml version="1.0" encoding="utf-8"?>
<!-- Generator: Adobe Illustrator 20.0.0, SVG Export Plug-In . SVG Version: 6.00 Build 0)  -->
<svg version="1.1" id="Capa_1" xmlns="http://www.w3.org/2000/svg" xmlns:xlink="http://www.w3.org/1999/xlink" x="0px" y="0px"
	 viewBox="0 0 316 110" style="enable-background:new 0 0 316 110;" xml:space="preserve">
<style type="text/css">
	.st0{fill:#6C9B3B;}
	.st1{fill:none;stroke:#6C9B3B;stroke-width:9.1947;stroke-miterlimit:10;}
	.st2{fill:none;stroke:#FFFFFF;stroke-width:1.8034;stroke-miterlimit:10;}
	.st3{fill:none;stroke:#FFFFFF;stroke-width:1.7248;stroke-miterlimit:10;}
	.st4{fill:#989798;}
</style>
<g>
	<path class="st0" d="M66.1,48.8c0-1.5,1.1-3.4,2.4-4.2L85,35.2c1.3-0.8,3.5-0.8,4.8,0l16.4,9.5c1.3,0.8,2.4,2.6,2.4,4.2v19
		c0,1.5-1.1,3.4-2.4,4.2l-16.4,9.5c-1.3,0.8-3.5,0.8-4.8,0L68.5,72c-1.3-0.8-2.4-2.6-2.4-4.2V48.8z"/>
	<path class="st1" d="M58.7,45.5c0-2.1,1.5-4.6,3.2-5.6l22.2-12.8c1.8-1,4.7-1,6.5,0l22.2,12.8c1.8,1,3.2,3.6,3.2,5.6v25.6
		c0,2.1-1.5,4.6-3.2,5.6L90.6,89.5c-1.8,1-4.7,1-6.5,0L62,76.7c-1.8-1-3.2-3.6-3.2-5.6V45.5z"/>
	<g>
		<g>
			<path class="st2" d="M88.3,52.1c-1.2-0.9-1.4-2.7-0.5-3.9l0,0c0.9-1.2,2.7-1.4,3.9-0.5l10.1,7.8c1.2,0.9,1.4,2.7,0.5,3.9l0,0
				c-0.9,1.2-2.7,1.4-3.9,0.5L88.3,52.1z"/>
			<path class="st2" d="M92.8,68.6c-1.1,1.1-2.8,1.1-3.9,0l0,0c-1.1-1.1-1.1-2.8,0-3.9l9.1-9c1.1-1.1,2.8-1.1,3.9,0l0,0
				c1.1,1.1,1.1,2.8,0,3.9L92.8,68.6z"/>
		</g>
		<path class="st3" d="M86.7,55.5c1.5,0,2.7,1.2,2.7,2.7l0,0c0,1.5-1.2,2.7-2.7,2.7h-12c-1.5,0-2.7-1.2-2.7-2.7l0,0
			c0-1.5,1.2-2.7,2.7-2.7H86.7z"/>
	</g>
	<g>
		<path class="st4" d="M148.9,40.5c-1.5,0-2.8,0.3-4.1,0.8c-1.3,0.6-2.4,1.3-3.3,2.3c-1,1-1.7,2.1-2.3,3.3c-0.6,1.3-0.8,2.6-0.8,4.1
			c0,1.5,0.3,2.8,0.8,4.1c0.6,1.3,1.3,2.4,2.3,3.3c0.9,1,2.1,1.7,3.3,2.3c1.3,0.6,2.6,0.8,4.1,0.8c0.9,0,1.8-0.1,2.7-0.3
			c0.9-0.2,1.7-0.6,2.5-1c0.7-0.4,1.6-0.6,2.4-0.6c0.6,0,1.2,0.1,1.8,0.4c0.5,0.2,1,0.6,1.5,1.1l1.2,1.2c-1.5,1.6-3.3,2.9-5.3,3.8
			c-2,0.9-4.3,1.4-6.6,1.4c-2.2,0-4.4-0.4-6.4-1.3c-2-0.9-3.7-2-5.2-3.5c-1.5-1.5-2.7-3.2-3.5-5.2s-1.3-4.1-1.3-6.4
			c0-2.2,0.4-4.4,1.3-6.4s2-3.7,3.5-5.2c1.5-1.5,3.2-2.7,5.2-3.5c2-0.9,4.1-1.3,6.4-1.3c2.4,0,4.6,0.5,6.6,1.4
			c2,0.9,3.8,2.2,5.3,3.8l-1.2,1.2c-0.5,0.5-1,0.8-1.5,1.1c-0.5,0.2-1.2,0.3-1.9,0.3c-0.8,0-1.6-0.2-2.2-0.6c-0.8-0.4-1.6-0.8-2.5-1
			C150.7,40.7,149.8,40.6,148.9,40.5z"/>
		<path class="st4" d="M170.9,23.5V67h-6V23.5H170.9z"/>
		<path class="st4" d="M178.5,27.1c0-0.6,0.1-1.1,0.3-1.6c0.2-0.5,0.5-0.9,0.9-1.3c0.4-0.4,0.8-0.7,1.3-0.9c0.5-0.2,1-0.3,1.6-0.3
			s1.1,0.1,1.6,0.3c0.5,0.2,0.9,0.5,1.3,0.9c0.4,0.4,0.7,0.8,0.9,1.3c0.2,0.5,0.3,1,0.3,1.6c0,0.6-0.1,1.1-0.3,1.6
			c-0.2,0.5-0.5,0.9-0.9,1.3c-0.4,0.4-0.8,0.7-1.3,0.9c-0.5,0.2-1,0.3-1.6,0.3s-1.1-0.1-1.6-0.3c-0.5-0.2-0.9-0.5-1.3-0.9
			c-0.4-0.4-0.7-0.8-0.9-1.3C178.6,28.2,178.5,27.7,178.5,27.1z M185.5,35.1V67h-6V35.1H185.5z"/>
		<path class="st4" d="M207.7,40.5c-1.5,0-2.8,0.3-4.1,0.8c-1.3,0.6-2.4,1.3-3.3,2.3c-1,1-1.7,2.1-2.3,3.3c-0.6,1.3-0.8,2.6-0.8,4.1
			c0,1.5,0.3,2.8,0.8,4.1c0.6,1.3,1.3,2.4,2.3,3.3c0.9,1,2.1,1.7,3.3,2.3c1.3,0.6,2.6,0.8,4.1,0.8c0.9,0,1.8-0.1,2.7-0.3
			c0.9-0.2,1.7-0.6,2.5-1c0.7-0.4,1.6-0.6,2.4-0.6c0.6,0,1.2,0.1,1.8,0.4c0.5,0.2,1,0.6,1.5,1.1l1.2,1.2c-1.5,1.6-3.3,2.9-5.3,3.8
			c-2,0.9-4.3,1.4-6.6,1.4c-2.2,0-4.4-0.4-6.4-1.3c-2-0.9-3.7-2-5.2-3.5s-2.7-3.2-3.5-5.2c-0.9-2-1.3-4.1-1.3-6.4
			c0-2.2,0.4-4.4,1.3-6.4c0.9-2,2-3.7,3.5-5.2c1.5-1.5,3.2-2.7,5.2-3.5c2-0.9,4.1-1.3,6.4-1.3c2.4,0,4.6,0.5,6.6,1.4
			c2,0.9,3.8,2.2,5.3,3.8l-1.2,1.2c-0.5,0.5-1,0.8-1.5,1.1c-0.5,0.2-1.2,0.3-1.9,0.3c-0.8,0-1.6-0.2-2.2-0.6c-0.8-0.4-1.6-0.8-2.5-1
			C209.6,40.7,208.7,40.6,207.7,40.5z"/>
		<path class="st4" d="M229.4,67h-6V23.5h6V67z M233.5,48.6l8-10.8c0.6-0.9,1.3-1.6,2.2-2c0.9-0.5,1.9-0.7,3.1-0.7h4.1l-10.7,14.6
			c-0.2,0.3-0.4,0.5-0.6,0.6c-0.2,0.1-0.3,0.2-0.3,0.2c0,0,0.2,0.1,0.3,0.2c0.2,0.1,0.4,0.3,0.6,0.6L251.7,67h-4.1
			c-1.2,0-2.2-0.2-3.1-0.7c-0.9-0.5-1.6-1.1-2.2-2l-8.8-11.8c-0.3-0.3-0.5-0.6-0.8-0.9c-0.3-0.2-0.5-0.4-0.7-0.6
			c-0.2-0.1-0.4-0.2-0.5-0.3c-0.1-0.1-0.2-0.1-0.2-0.1c0,0,0.1,0,0.2-0.1c0.1-0.1,0.3-0.2,0.5-0.3c0.2-0.1,0.4-0.3,0.7-0.6
			C232.9,49.3,233.2,49,233.5,48.6z"/>
	</g>
	<g>
		<g>
			<path class="st0" d="M156.7,83.8c0.1-0.1,0.3-0.1,0.4-0.2c0.1,0,0.3-0.1,0.4-0.1c0.2,0,0.3,0,0.5,0.1s0.3,0.2,0.5,0.3
				c0.1,0.1,0.3,0.2,0.5,0.2c0.2,0,0.3,0.1,0.5,0.1c0.2,0,0.4,0,0.6-0.1c0.2-0.1,0.4-0.1,0.5-0.3c0.2-0.1,0.3-0.3,0.4-0.4
				c0.1-0.2,0.1-0.4,0.1-0.6c0-0.2,0-0.3-0.1-0.5c-0.1-0.1-0.1-0.2-0.3-0.3c-0.1-0.1-0.3-0.2-0.5-0.3c-0.2-0.1-0.5-0.2-0.8-0.3
				c-0.4-0.1-0.7-0.3-1-0.4c-0.3-0.2-0.6-0.3-0.9-0.6c-0.3-0.2-0.5-0.5-0.6-0.8c-0.2-0.3-0.2-0.7-0.2-1.1c0-0.4,0.1-0.8,0.3-1.1
				c0.2-0.3,0.4-0.6,0.7-0.9c0.3-0.2,0.6-0.4,1-0.6c0.4-0.1,0.7-0.2,1.1-0.2c0.4,0,0.7,0.1,1.1,0.2c0.3,0.1,0.6,0.3,0.8,0.5
				c0.2,0.2,0.4,0.3,0.6,0.5c0.1,0.2,0.2,0.3,0.3,0.3l-0.4,0.4c-0.3,0.2-0.6,0.3-0.9,0.3c-0.1,0-0.3,0-0.4-0.1
				c-0.1-0.1-0.3-0.1-0.5-0.2c-0.1-0.1-0.3-0.1-0.4-0.1c-0.2,0-0.5,0-0.6,0.1c-0.2,0.1-0.3,0.2-0.4,0.3c-0.1,0.1-0.2,0.2-0.2,0.3
				c0,0.1-0.1,0.2-0.1,0.3c0,0.2,0,0.3,0.1,0.5c0.1,0.1,0.2,0.2,0.4,0.3c0.2,0.1,0.3,0.2,0.5,0.2c0.2,0.1,0.4,0.1,0.6,0.2
				c0.4,0.1,0.8,0.3,1.1,0.4c0.4,0.2,0.7,0.4,1,0.6c0.3,0.2,0.5,0.5,0.7,0.9c0.2,0.3,0.2,0.7,0.2,1.2c0,0.4-0.1,0.8-0.3,1.2
				c-0.2,0.4-0.4,0.7-0.7,1c-0.3,0.3-0.7,0.5-1.1,0.7c-0.4,0.2-0.9,0.3-1.4,0.3c-0.3,0-0.7,0-1-0.1c-0.3-0.1-0.6-0.2-0.9-0.4
				c-0.3-0.2-0.5-0.4-0.8-0.6c-0.2-0.2-0.4-0.5-0.6-0.9L156.7,83.8z"/>
			<path class="st0" d="M171.9,85.9c-0.1-0.1-0.1-0.2-0.1-0.2c0-0.1-0.1-0.2-0.1-0.3c0-0.1,0-0.2,0-0.3v-0.4
				c-0.1,0.2-0.3,0.4-0.5,0.6c-0.2,0.2-0.4,0.3-0.7,0.4c-0.3,0.1-0.5,0.2-0.8,0.3c-0.3,0.1-0.6,0.1-0.9,0.1c-0.6,0-1.1-0.1-1.5-0.3
				c-0.5-0.2-0.9-0.5-1.2-0.9c-0.3-0.4-0.6-0.9-0.8-1.4c-0.2-0.6-0.3-1.2-0.3-1.8v-5.7h1.9v5.7c0,0.8,0.2,1.5,0.5,2
				c0.3,0.5,0.8,0.7,1.4,0.7c0.4,0,0.7,0,1.1-0.1c0.3-0.1,0.6-0.2,0.9-0.4c0.3-0.2,0.5-0.3,0.6-0.6c0.2-0.2,0.2-0.4,0.3-0.7v-6.7
				h1.9v10H171.9z"/>
			<path class="st0" d="M176,83.8c0.1-0.1,0.3-0.1,0.4-0.2c0.1,0,0.3-0.1,0.4-0.1c0.2,0,0.3,0,0.5,0.1c0.1,0.1,0.3,0.2,0.5,0.3
				c0.1,0.1,0.3,0.2,0.5,0.2c0.2,0,0.3,0.1,0.5,0.1c0.2,0,0.4,0,0.6-0.1c0.2-0.1,0.4-0.1,0.5-0.3c0.2-0.1,0.3-0.3,0.4-0.4
				c0.1-0.2,0.1-0.4,0.1-0.6c0-0.2,0-0.3-0.1-0.5c-0.1-0.1-0.1-0.2-0.3-0.3c-0.1-0.1-0.3-0.2-0.5-0.3s-0.5-0.2-0.8-0.3
				c-0.4-0.1-0.7-0.3-1-0.4c-0.3-0.2-0.6-0.3-0.9-0.6c-0.3-0.2-0.5-0.5-0.6-0.8c-0.2-0.3-0.2-0.7-0.2-1.1c0-0.4,0.1-0.8,0.3-1.1
				c0.2-0.3,0.4-0.6,0.7-0.9c0.3-0.2,0.6-0.4,1-0.6c0.4-0.1,0.7-0.2,1.1-0.2c0.4,0,0.7,0.1,1.1,0.2c0.3,0.1,0.6,0.3,0.8,0.5
				c0.2,0.2,0.4,0.3,0.6,0.5c0.1,0.2,0.2,0.3,0.3,0.3l-0.4,0.4c-0.3,0.2-0.6,0.3-0.9,0.3c-0.1,0-0.3,0-0.4-0.1
				c-0.1-0.1-0.3-0.1-0.5-0.2c-0.1-0.1-0.3-0.1-0.4-0.1c-0.2,0-0.5,0-0.6,0.1c-0.2,0.1-0.3,0.2-0.4,0.3c-0.1,0.1-0.2,0.2-0.2,0.3
				c0,0.1-0.1,0.2-0.1,0.3c0,0.2,0,0.3,0.1,0.5c0.1,0.1,0.2,0.2,0.4,0.3c0.2,0.1,0.3,0.2,0.5,0.2c0.2,0.1,0.4,0.1,0.6,0.2
				c0.4,0.1,0.8,0.3,1.1,0.4c0.4,0.2,0.7,0.4,1,0.6c0.3,0.2,0.5,0.5,0.7,0.9c0.2,0.3,0.2,0.7,0.2,1.2c0,0.4-0.1,0.8-0.3,1.2
				c-0.2,0.4-0.4,0.7-0.7,1c-0.3,0.3-0.7,0.5-1.1,0.7c-0.4,0.2-0.9,0.3-1.4,0.3c-0.3,0-0.7,0-1-0.1c-0.3-0.1-0.6-0.2-0.9-0.4
				c-0.3-0.2-0.5-0.4-0.8-0.6c-0.2-0.2-0.4-0.5-0.6-0.9L176,83.8z"/>
			<path class="st0" d="M188.9,77.6c-0.5,0-0.9,0.1-1.3,0.3c-0.4,0.2-0.8,0.4-1.1,0.7c-0.3,0.3-0.5,0.6-0.7,1.1
				c-0.2,0.4-0.3,0.8-0.3,1.3c0,0.5,0.1,0.9,0.3,1.3c0.2,0.4,0.4,0.8,0.7,1.1c0.3,0.3,0.7,0.5,1.1,0.7c0.4,0.2,0.8,0.3,1.3,0.3
				c0.3,0,0.6,0,0.8-0.1c0.3-0.1,0.5-0.2,0.8-0.3c0.2-0.1,0.5-0.2,0.8-0.2c0.2,0,0.4,0,0.6,0.1c0.2,0.1,0.3,0.2,0.5,0.3l0.4,0.4
				c-0.5,0.5-1,0.9-1.7,1.2c-0.6,0.3-1.3,0.4-2.1,0.4c-0.7,0-1.4-0.1-2-0.4c-0.6-0.3-1.2-0.6-1.6-1.1c-0.5-0.5-0.8-1-1.1-1.6
				c-0.3-0.6-0.4-1.3-0.4-2c0-0.7,0.1-1.4,0.4-2c0.3-0.6,0.6-1.2,1.1-1.6c0.5-0.5,1-0.8,1.6-1.1c0.6-0.3,1.3-0.4,2-0.4
				c0.8,0,1.4,0.1,2.1,0.4c0.6,0.3,1.2,0.7,1.7,1.2l-0.4,0.4c-0.2,0.2-0.3,0.3-0.5,0.3c-0.2,0.1-0.4,0.1-0.6,0.1
				c-0.3,0-0.5-0.1-0.7-0.2c-0.2-0.1-0.5-0.2-0.8-0.3C189.5,77.6,189.2,77.6,188.9,77.6z"/>
			<path class="st0" d="M195.9,75.9c0.1,0.1,0.1,0.2,0.1,0.2c0,0.1,0.1,0.2,0.1,0.3c0,0.1,0,0.2,0,0.3v0.7c0.1-0.2,0.3-0.4,0.5-0.6
				c0.2-0.2,0.4-0.4,0.7-0.5c0.3-0.1,0.5-0.3,0.8-0.4c0.3-0.1,0.6-0.1,0.9-0.1c0.5,0,1,0.1,1.5,0.3l-0.1,0.8
				c-0.1,0.3-0.2,0.5-0.3,0.6c-0.2,0.1-0.4,0.2-0.7,0.2c0,0-0.1,0-0.1,0c0,0,0,0,0,0c0,0,0,0-0.1,0c0,0-0.1,0-0.2,0
				c-0.4,0-0.7,0.1-1.1,0.2c-0.3,0.1-0.6,0.3-0.9,0.4c-0.3,0.2-0.5,0.4-0.6,0.6c-0.2,0.2-0.2,0.5-0.3,0.7v6.4h-1.9v-10H195.9z"/>
			<path class="st0" d="M201.6,73.4c0-0.2,0-0.3,0.1-0.5c0.1-0.2,0.2-0.3,0.3-0.4c0.1-0.1,0.3-0.2,0.4-0.3c0.2-0.1,0.3-0.1,0.5-0.1
				c0.2,0,0.3,0,0.5,0.1c0.2,0.1,0.3,0.2,0.4,0.3c0.1,0.1,0.2,0.3,0.3,0.4c0.1,0.2,0.1,0.3,0.1,0.5s0,0.3-0.1,0.5
				c-0.1,0.2-0.2,0.3-0.3,0.4c-0.1,0.1-0.3,0.2-0.4,0.3c-0.2,0.1-0.3,0.1-0.5,0.1c-0.2,0-0.3,0-0.5-0.1c-0.2-0.1-0.3-0.2-0.4-0.3
				c-0.1-0.1-0.2-0.3-0.3-0.4C201.6,73.7,201.6,73.5,201.6,73.4z M203.8,75.9v10h-1.9v-10H203.8z"/>
			<path class="st0" d="M206.8,85.9V72.2h1.9v4.5c0.2-0.2,0.4-0.4,0.6-0.5c0.2-0.1,0.4-0.2,0.7-0.3c0.2-0.1,0.4-0.1,0.7-0.2
				c0.2,0,0.5,0,0.7,0c0.7,0,1.4,0.1,2,0.4c0.6,0.3,1.1,0.6,1.6,1.1c0.4,0.5,0.8,1,1,1.6c0.3,0.6,0.4,1.3,0.4,2s-0.1,1.4-0.4,2
				c-0.3,0.6-0.6,1.2-1,1.6c-0.4,0.5-1,0.8-1.6,1.1c-0.6,0.3-1.3,0.4-2,0.4c-0.4,0-0.9-0.1-1.4-0.2c-0.5-0.1-0.9-0.4-1.3-0.8v0.1
				c0,0.1,0,0.2-0.1,0.3c0,0.1-0.1,0.2-0.1,0.3c0,0.1-0.1,0.2-0.1,0.2H206.8z M211.4,84.2c0.5,0,0.9-0.1,1.3-0.3
				c0.4-0.2,0.7-0.4,1-0.7c0.3-0.3,0.5-0.6,0.6-1.1c0.2-0.4,0.2-0.8,0.2-1.3c0-0.5-0.1-0.9-0.2-1.3c-0.2-0.4-0.4-0.8-0.6-1.1
				c-0.3-0.3-0.6-0.5-1-0.7c-0.4-0.2-0.8-0.3-1.3-0.3c-0.5,0-1,0.1-1.4,0.3c-0.5,0.2-0.9,0.5-1.2,0.8v4.5c0.3,0.3,0.7,0.6,1.2,0.8
				C210.4,84.1,210.9,84.2,211.4,84.2z"/>
			<path class="st0" d="M227.9,80.1c0,0.2,0,0.4-0.1,0.6c-0.1,0.2-0.2,0.3-0.3,0.4c-0.1,0.1-0.3,0.2-0.4,0.3
				c-0.2,0.1-0.3,0.1-0.4,0.1h-7c0.1,0.4,0.2,0.7,0.4,1.1c0.2,0.3,0.4,0.6,0.7,0.9c0.3,0.2,0.6,0.4,1,0.6c0.4,0.1,0.8,0.2,1.2,0.2
				c0.3,0,0.6,0,0.8-0.1c0.3-0.1,0.5-0.2,0.8-0.3c0.1-0.1,0.3-0.1,0.4-0.2c0.1,0,0.3,0,0.4,0c0.2,0,0.4,0,0.6,0.1
				c0.2,0.1,0.3,0.2,0.5,0.3l0.4,0.4c-0.5,0.5-1,0.9-1.7,1.2c-0.6,0.3-1.3,0.4-2.1,0.4c-0.7,0-1.4-0.1-2-0.4
				c-0.6-0.3-1.2-0.6-1.6-1.1c-0.5-0.5-0.8-1-1.1-1.6c-0.3-0.6-0.4-1.3-0.4-2c0-0.7,0.1-1.4,0.4-2c0.3-0.6,0.6-1.2,1.1-1.6
				c0.5-0.5,1-0.8,1.6-1.1c0.6-0.3,1.3-0.4,2-0.4c0.6,0,1.2,0.1,1.7,0.3c0.5,0.2,1,0.5,1.5,0.8c0.4,0.3,0.8,0.8,1.1,1.2
				c0.3,0.5,0.5,1,0.7,1.5c0,0.1,0,0.1,0,0.2S227.9,80,227.9,80.1z M220.3,79.6h5.6c-0.1-0.3-0.3-0.6-0.5-0.8
				c-0.2-0.3-0.4-0.5-0.7-0.6c-0.3-0.2-0.6-0.3-0.9-0.4c-0.3-0.1-0.7-0.2-1-0.2c-0.4,0-0.7,0.1-1.1,0.2c-0.3,0.1-0.6,0.3-0.9,0.5
				c-0.3,0.2-0.5,0.5-0.7,0.8c-0.2,0.3-0.4,0.6-0.5,1c0.1-0.1,0.1-0.1,0.2-0.2C220,79.7,220.2,79.6,220.3,79.6z"/>
		</g>
	</g>
</g>
</svg>
